<svg width="50" height="60" viewBox="0 0 5 6" fill="none" xmlns="http://www.w3.org/2000/svg">
    <path d="M4 0.5 L2 1 V2 L4 1.5 V0.5 Z" fill="black"/>
    <path d="M0.5 4.84189C0.5 5.16565 0.817191 5.39427 1.12434 5.29189L2 5V4L0.824342 4.39189C0.630648 4.45645 0.5 4.63772 0.5 4.84189V4.84189Z" fill="black"/>
    <path d="M2 2V1L4 0.5V1.5L2 2ZM2 2V4M2 4V5L1.12434 5.29189C0.817191 5.39427 0.5 5.16565 0.5 4.84189V4.84189C0.5 4.63772 0.630648 4.45645 0.824342 4.39189L2 4Z" stroke="black" stroke-width="0.5" stroke-linecap="round" stroke-linejoin="round"/>
</svg>
