<svg width="100%" height="100%" viewBox="0 0 6 6" fill="white" xmlns="http://www.w3.org/2000/svg">
    <title>Doble Corchea</title>
    <path d="M5 0.5L2 1V2L5 1.5V0.5Z" fill="white"/>
    <path d="M0.5 4.84189C0.5 5.16565 0.817191 5.39427 1.12434 5.29189L2 5V4L0.824342 4.39189C0.630648 4.45645 0.5 4.63772 0.5 4.84189V4.84189Z" fill="white"/>
    <path d="M3.5 4.34189C3.5 4.66565 3.81719 4.89427 4.12434 4.79189L5 4.5V3.5L3.82434 3.89189C3.63065 3.95645 3.5 4.13772 3.5 4.34189V4.34189Z" fill="white"/>
    <path d="M5 1.5V0.5L2 1V2M5 1.5L2 2M5 1.5V3.5M2 2V4M2 4V5L1.12434 5.29189C0.817191 5.39427 0.5 5.16565 0.5 4.84189V4.84189C0.5 4.63772 0.630648 4.45645 0.824342 4.39189L2 4ZM5 3.5V4.5L4.12434 4.79189C3.81719 4.89427 3.5 4.66565 3.5 4.34189V4.34189C3.5 4.13772 3.63065 3.95645 3.82434 3.89189L5 3.5Z" stroke="white" stroke-width="0.5" stroke-linecap="round" stroke-linejoin="round"/>
</svg>